<svg preserveAspectRatio="none" overflow="visible" style="display: block;" width="104.012" height="17.298" viewBox="0 0 104.012 17.298" fill="none" xmlns="http://www.w3.org/2000/svg">
<g id="Group 3">
<path id="Vector" d="M97.6759 12.9805C96.3021 12.9805 95.1807 11.8591 95.1807 10.4853C95.1807 9.11162 96.3021 7.99019 97.6759 7.99019C99.0496 7.99019 100.171 9.11162 100.171 10.4853C100.171 11.8591 99.0496 12.9805 97.6759 12.9805ZM100.115 0.588867V5.94362C99.1898 4.96238 98.0123 4.51382 96.5825 4.51382C93.6668 4.51382 90.8633 6.58843 90.8633 10.4853C90.8633 14.2701 93.6668 16.569 96.6105 16.569C98.0684 16.569 99.2459 16.0363 100.087 14.943V16.2606H104.012V0.616896H100.115V0.588867Z" fill="white"/>
<path id="Vector_2" d="M56.7722 5.07471L54.3892 10.9061L52.0343 5.07471H49.5391L47.1841 10.7378L44.9133 5.07471H40.5117L45.8384 16.2328H48.5018L50.7446 10.3173L53.0996 16.2328H55.7349L61.1458 5.07471H56.7722Z" fill="white"/>
<path id="Vector_3" d="M82.705 4.82227C81.892 4.82227 81.1911 4.99048 80.5743 5.35494C79.9575 5.7194 79.4529 6.22404 79.0324 6.89689V5.07459H75.1074V16.2327H79.0324V11.4386C79.0324 10.4013 79.2567 9.58827 79.7333 9.0556C80.1818 8.52293 80.8827 8.24258 81.7798 8.24258C82.3966 8.24258 82.9573 8.38275 83.49 8.63507V4.87834C83.1536 4.82227 83.0695 4.82227 82.705 4.82227Z" fill="white"/>
<path id="Vector_4" d="M89.2655 0.588867H85.3125V16.2326H89.2655V0.588867Z" fill="white"/>
<path id="Vector_5" d="M25.5972 5.35498L21.7283 13.3731L17.8033 5.35498H16.0371L21.7002 17.298L27.3634 5.35498H25.5972Z" fill="white"/>
<path id="Vector_6" d="M36.811 10.8217C36.811 13.0365 35.0167 14.8587 32.7739 14.8587C30.5591 14.8587 28.7368 13.0645 28.7368 10.8217C28.7368 8.60687 30.5311 6.78456 32.7739 6.78456C34.9887 6.78456 36.811 8.60687 36.811 10.8217ZM36.9512 0V6.89671C35.8858 5.74726 34.3719 5.10244 32.7739 5.10244C29.6339 5.10244 27.0547 7.6817 27.0547 10.8217C27.0547 13.9897 29.6339 16.5409 32.7739 16.5409C34.3719 16.5409 35.8858 15.868 36.9512 14.7466V16.2325H38.6333V0H36.9512Z" fill="white"/>
<path id="Vector_7" d="M5.85939 6.78456C8.07418 6.78456 9.89649 8.57883 9.89649 10.8217C9.89649 13.0365 8.10222 14.8587 5.85939 14.8587C3.6446 14.8587 1.8223 13.0645 1.8223 10.8217C1.8223 8.60687 3.6446 6.78456 5.85939 6.78456ZM0 0V16.2325H1.68212V14.7466C2.74747 15.8961 4.26137 16.5409 5.85939 16.5409C8.99935 16.5409 11.5786 13.9616 11.5786 10.8217C11.5786 7.65367 8.99935 5.10244 5.85939 5.10244C4.26137 5.10244 2.74747 5.7753 1.68212 6.89671V0H0Z" fill="white"/>
<path id="Vector_8" d="M14.7192 0H13.0371V16.2325H14.7192V0Z" fill="white"/>
<path id="Vector_9" d="M67.1439 13.0086C65.7702 13.0086 64.6487 11.8872 64.6487 10.5134C64.6487 9.13971 65.7702 8.01831 67.1439 8.01831C68.5176 8.01831 69.639 9.13971 69.639 10.5134C69.639 11.8872 68.5176 13.0086 67.1439 13.0086ZM67.1439 4.48584C63.6395 4.48584 60.8359 7.17724 60.8359 10.5134C60.8359 13.8497 63.6675 16.541 67.1439 16.541C70.6483 16.541 73.4799 13.8497 73.4799 10.5134C73.4799 7.20527 70.6483 4.48584 67.1439 4.48584Z" fill="white"/>
</g>
</svg>
