<svg preserveAspectRatio="none" overflow="visible" style="display: block;" width="9" height="11.0001" viewBox="0 0 9 11.0001" fill="none" xmlns="http://www.w3.org/2000/svg">
<path id="vector (Stroke)" fill-rule="evenodd" clip-rule="evenodd" d="M5.23946 0.017921C5.39469 0.0676757 5.5 0.212015 5.5 0.375026V3.50003H8.625C8.765 3.50003 8.89334 3.57801 8.95783 3.70226C9.02233 3.82651 9.01225 3.97635 8.93168 4.09084L4.18168 10.8408C4.08758 10.9746 3.9177 11.0319 3.76182 10.9825C3.60594 10.9332 3.5 10.7885 3.5 10.625V7.39867H0.375001C0.234525 7.39867 0.105829 7.32016 0.0415553 7.19525C-0.0227183 7.07034 -0.0117892 6.91998 0.0698723 6.80568L4.81987 0.157033C4.91463 0.0243943 5.08423 -0.0318337 5.23946 0.017921ZM1.10378 6.64867H3.875C4.08211 6.64867 4.25 6.81657 4.25 7.02367V9.44052L7.90257 4.25003H5.125C4.91789 4.25003 4.75 4.08213 4.75 3.87503V1.54501L1.10378 6.64867Z" fill="#A1A1AA"/>
</svg>
